<svg xmlns="http://www.w3.org/2000/svg" viewBox="440 120 760 570" preserveAspectRatio="xMidYMid slice"><style>svg{--sheet:#0d1631;--l:#e3e9ff;--lamp:#ffcf8a}
.sheet{fill:var(--sheet)}.ln-grid{stroke:rgba(227,233,255,.05);stroke-width:1}
.ln-con{stroke:var(--l);stroke-opacity:.16;stroke-width:.75;stroke-dasharray:14 6 2 6;fill:none}
.cut{stroke:var(--l);stroke-width:2}.cut-w{stroke:var(--l);stroke-width:2.2;fill:none}
.ln-h{stroke:var(--l);stroke-opacity:.5;stroke-width:.8}.wool{stroke:none;opacity:.55}
.ln-2{stroke:var(--l);stroke-opacity:.8;stroke-width:1.2;fill:none}
.ln-3{stroke:var(--l);stroke-opacity:.6;stroke-width:.8;stroke-dasharray:6 4;fill:none}
.ln-beyond{stroke:var(--l);stroke-opacity:.45;stroke-width:1;stroke-dasharray:8 6;fill:none}
.tile{stroke:var(--l);stroke-width:1.6;fill:var(--sheet)}
.lamp-fill{stroke:var(--lamp);stroke-width:1.8;fill:rgba(255,207,138,.22)}.lamp-ln{stroke:var(--lamp);stroke-width:2;fill:none}
.ln-dim{stroke:var(--l);stroke-opacity:.7;stroke-width:.8}.nib{fill:var(--l);opacity:.8}
.water{fill:rgba(227,233,255,.08);stroke:none}.mask{fill:var(--sheet);stroke:none}.ln-tile{stroke:var(--l);stroke-opacity:.1;stroke-width:.8}.wall{fill:var(--l);fill-opacity:.4;stroke:var(--l);stroke-width:1.2}.halo{fill:var(--lamp);opacity:.12}.dot{fill:var(--lamp)}
.dim,.call:not(.lamp),.key,.tb,text{display:none}</style>
<defs><pattern id="hz-djelatnosti-t" width="8" height="8" patternUnits="userSpaceOnUse" patternTransform="rotate(45)"><line x1="0" y1="0" x2="0" y2="8" class="ln-h"/></pattern><pattern id="hz2-djelatnosti-t" width="8" height="8" patternUnits="userSpaceOnUse" patternTransform="rotate(-45)"><line x1="0" y1="0" x2="0" y2="8" class="ln-h"/></pattern><pattern id="wool-djelatnosti-t" width="20" height="16" patternUnits="userSpaceOnUse" patternTransform="rotate(-40)"><path d="M0 8 Q5 0 10 8 T20 8" class="ln-h" fill="none"/></pattern><pattern id="dots-djelatnosti-t" width="10" height="10" patternUnits="userSpaceOnUse"><circle cx="2" cy="2" r="0.9" class="nib"/><circle cx="7" cy="6" r="0.7" class="nib"/></pattern><pattern id="wool-v-djelatnosti-t" width="16" height="20" patternUnits="userSpaceOnUse"><path d="M8 0 Q0 5 8 10 T8 20" class="ln-h" fill="none"/></pattern><pattern id="grid-djelatnosti-t" width="40" height="40" patternUnits="userSpaceOnUse"><path d="M40 0H0V40" class="ln-grid" fill="none"/></pattern></defs>
<rect class="sheet" x="-200" y="-200" width="1600" height="1400"/><rect x="-200" y="-200" width="1600" height="1400" fill="url(#grid-djelatnosti-t)"/>
<g class="nd nd-1">
<line class="cut-w" pathLength="1" x1="470" y1="190" x2="1180" y2="190"/>
<line class="cut-w" pathLength="1" x1="470" y1="762" x2="1180" y2="762"/>
<line class="ln-frame" pathLength="1" x1="518" y1="156" x2="518" y2="762"/>
<line class="ln-frame" pathLength="1" x1="930" y1="156" x2="930" y2="762"/>
</g>
<g class="nd nd-2">
<text class="t-call" x="470" y="138" font-weight="700" style="font-size:20px">KAZALO LISTOVA</text>
<text class="t-small" x="474" y="178">LIST</text>
<text class="t-small" x="532" y="178">DJELATNOST</text>
<text class="t-small" x="944" y="178">POGLED · MJERILO</text>
</g>
<g class="nd nd-3">
<text class="t-call" x="474" y="224" font-weight="700" style="font-size:22px">01</text>
<text class="t-call" x="532" y="224" style="font-size:22px">Klima i grijanje</text>
<text class="t-dim" x="944" y="224" style="font-size:18px">PRESJEK · 1:5</text>
<line class="ln-frame" pathLength="1" x1="470" y1="242" x2="1180" y2="242"/>
<text class="t-call" x="474" y="276" font-weight="700" style="font-size:22px">02</text>
<text class="t-call" x="532" y="276" style="font-size:22px">Vodoinstalateri</text>
<text class="t-dim" x="944" y="276" style="font-size:18px">POGLED · 1:20</text>
<line class="ln-frame" pathLength="1" x1="470" y1="294" x2="1180" y2="294"/>
<text class="t-call" x="474" y="328" font-weight="700" style="font-size:22px">03</text>
<text class="t-call" x="532" y="328" style="font-size:22px">Električari</text>
<text class="t-dim" x="944" y="328" style="font-size:18px">SHEMA</text>
<line class="ln-frame" pathLength="1" x1="470" y1="346" x2="1180" y2="346"/>
<text class="t-call" x="474" y="380" font-weight="700" style="font-size:22px">04</text>
<text class="t-call" x="532" y="380" style="font-size:22px">Krovopokrivači</text>
<text class="t-dim" x="944" y="380" style="font-size:18px">PRESJEK · 1:20</text>
<line class="ln-frame" pathLength="1" x1="470" y1="398" x2="1180" y2="398"/>
<text class="t-call" x="474" y="432" font-weight="700" style="font-size:22px">05</text>
<text class="t-call" x="532" y="432" style="font-size:22px">Građevina i adaptacije</text>
<text class="t-dim" x="944" y="432" style="font-size:18px">TLOCRT · 1:50</text>
<line class="ln-frame" pathLength="1" x1="470" y1="450" x2="1180" y2="450"/>
</g>
<g class="nd nd-4">
<text class="t-call" x="474" y="484" font-weight="700" style="font-size:22px">06</text>
<text class="t-call" x="532" y="484" style="font-size:22px">Ugostiteljstvo i smještaj</text>
<text class="t-dim" x="944" y="484" style="font-size:18px">SITUACIJA · 1:100</text>
<line class="ln-frame" pathLength="1" x1="470" y1="502" x2="1180" y2="502"/>
<text class="t-call" x="474" y="536" font-weight="700" style="font-size:22px">07</text>
<text class="t-call" x="532" y="536" style="font-size:22px">Trgovine i webshop</text>
<text class="t-dim" x="944" y="536" style="font-size:18px">POGLED · 1:50</text>
<line class="ln-frame" pathLength="1" x1="470" y1="554" x2="1180" y2="554"/>
<text class="t-call" x="474" y="588" font-weight="700" style="font-size:22px">08</text>
<text class="t-call" x="532" y="588" style="font-size:22px">Saloni ljepote</text>
<text class="t-dim" x="944" y="588" style="font-size:18px">TLOCRT · 1:50</text>
<line class="ln-frame" pathLength="1" x1="470" y1="606" x2="1180" y2="606"/>
<text class="t-call" x="474" y="640" font-weight="700" style="font-size:22px">09</text>
<text class="t-call" x="532" y="640" style="font-size:22px">Stručne usluge</text>
<text class="t-dim" x="944" y="640" style="font-size:18px">TLOCRT · 1:50</text>
<line class="ln-frame" pathLength="1" x1="470" y1="658" x2="1180" y2="658"/>
<text class="t-call" x="474" y="692" font-weight="700" style="font-size:22px">10</text>
<text class="t-call" x="532" y="692" style="font-size:22px">Ustanove i udruge</text>
<text class="t-dim" x="944" y="692" style="font-size:18px">TLOCRT · 1:100</text>
<line class="ln-frame" pathLength="1" x1="470" y1="710" x2="1180" y2="710"/>
</g>
<g class="nd nd-6">
<g class="call lamp">
<text class="t-call" x="474" y="744" font-weight="700" style="font-size:22px">11</text>
<text class="t-call" x="532" y="744" style="font-size:22px">Vaša djelatnost</text>
<text class="t-dim" x="944" y="744" style="font-size:18px">NA UPIT</text>
</g>
</g>
</svg>
