<svg class="m" xmlns="http://www.w3.org/2000/svg" viewBox="440 60 680 562" preserveAspectRatio="xMidYMid slice" aria-hidden="true" focusable="false">
<defs><pattern id="hz08m" width="8" height="8" patternUnits="userSpaceOnUse" patternTransform="rotate(45)"><line x1="0" y1="0" x2="0" y2="8" class="ln-h"/></pattern><pattern id="grid08m" width="40" height="40" patternUnits="userSpaceOnUse"><path d="M40 0H0V40" class="ln-grid" fill="none"/></pattern></defs>
<rect class="sheet" x="-200" y="-200" width="1600" height="1400"/><rect x="-200" y="-200" width="1600" height="1400" fill="url(#grid08m)"/>
<g class="nd nd-1">
<path class="ln-con" d="M606 192L606 352M702 192L702 352M798 192L798 352M894 192L894 352M402 291L990 291"/>
</g>
<g class="nd nd-2">
<rect class="cut" pathLength="1" x="424" y="214" width="544" height="16" fill="url(#hz08m)"/>
<rect class="cut" pathLength="1" x="424" y="230" width="16" height="384" fill="url(#hz08m)"/>
<rect class="cut" pathLength="1" x="952" y="230" width="16" height="384" fill="url(#hz08m)"/>
<rect class="cut" pathLength="1" x="424" y="614" width="54" height="16" fill="url(#hz08m)"/>
<rect class="cut" pathLength="1" x="542" y="614" width="26" height="16" fill="url(#hz08m)"/>
<rect class="cut" pathLength="1" x="811" y="614" width="157" height="16" fill="url(#hz08m)"/>
</g>
<g class="nd nd-3">
<line class="ln-2" pathLength="1" x1="578" y1="233" x2="635" y2="233"/>
<circle class="ln-3" cx="606" cy="291" r="48"/>
<path class="ln-2" pathLength="1" d="M574.4 230 H638.4 V252.4 H574.4 Z M588.48 290.8 a17.92 17.92 0 1 0 35.84 0 a17.92 17.92 0 1 0 -35.84 0 Z"/>
<path class="ln-2" pathLength="1" d="M591.04 303.6 A20.48 20.48 0 0 0 621.76 303.6"/>
<line class="ln-2" pathLength="1" x1="674" y1="233" x2="731" y2="233"/>
<circle class="ln-3" cx="702" cy="291" r="48"/>
<line class="ln-2" pathLength="1" x1="770" y1="233" x2="827" y2="233"/>
<circle class="ln-3" cx="798" cy="291" r="48"/>
<path class="ln-2" pathLength="1" d="M766.4 230 H830.4 V252.4 H766.4 Z M780.48 290.8 a17.92 17.92 0 1 0 35.84 0 a17.92 17.92 0 1 0 -35.84 0 Z"/>
<path class="ln-2" pathLength="1" d="M783.04 303.6 A20.48 20.48 0 0 0 813.76 303.6"/>
<line class="ln-2" pathLength="1" x1="866" y1="233" x2="923" y2="233"/>
<circle class="ln-3" cx="894" cy="291" r="48"/>
<path class="ln-2" pathLength="1" d="M862.4 230 H926.4 V252.4 H862.4 Z M876.48 290.8 a17.92 17.92 0 1 0 35.84 0 a17.92 17.92 0 1 0 -35.84 0 Z"/>
<path class="ln-2" pathLength="1" d="M879.04 303.6 A20.48 20.48 0 0 0 909.76 303.6"/>
</g>
<g class="nd nd-4">
<rect class="ln-2" pathLength="1" x="920" y="416" width="32" height="38"/>
<ellipse class="ln-2" cx="936.64" cy="434.8" rx="9.6" ry="12.8"/>
<rect class="ln-2" pathLength="1" x="843" y="417" width="74" height="36" rx="7.68"/>
<line class="ln-h" x1="894" y1="417" x2="894" y2="453"/>
<rect class="ln-2" pathLength="1" x="920" y="480" width="32" height="38"/>
<ellipse class="ln-2" cx="936.64" cy="498.8" rx="9.6" ry="12.8"/>
<rect class="ln-2" pathLength="1" x="843" y="481" width="74" height="36" rx="7.68"/>
<line class="ln-h" x1="894" y1="481" x2="894" y2="517"/>
<path class="cut-w" pathLength="1" d="M580.8 505.2 H670.4 V524.4 Q625.6 559.6 580.8 524.4 Z"/>
<circle class="ln-2" pathLength="1" cx="626" cy="483" r="14.1"/>
<rect class="ln-2" pathLength="1" x="440" y="384" width="51" height="128"/>
<path class="ln-h" d="M453 384L453 512M453 426L491 426M453 469L491 469"/>
<circle class="ln-2" pathLength="1" cx="530" cy="448" r="22"/>
<rect class="ln-2" pathLength="1" x="440" y="268" width="22" height="90"/>
<path class="ln-h" d="M440 291L462 291M440 313L462 313M440 336L462 336"/>
<line class="ln-2" pathLength="1" x1="542" y1="614" x2="542" y2="550"/>
<path class="ln-h" d="M478.4 614 A64 64 0 0 1 542.4 550"/>
<rect class="ln-2" pathLength="1" x="568" y="614" width="243" height="16"/>
<line class="ln-h" x1="568" y1="622" x2="811" y2="622"/>
</g>
<g class="nd nd-5">
<text class="t-dim" x="798" y="460" text-anchor="middle">PRANJE</text>
</g>
<g class="nd nd-6">
<g class="call c03">
<circle class="dot" cx="798" cy="233" r="3.5"/>
<polyline class="ln-lead" pathLength="1" points="798,233 798,96 812,96"/>
<text class="t-call" x="820" y="101"><tspan class="t-n">03</tspan>  OGLEDALA</text>
<text class="t-web" x="820" y="130">→ Galerija i tim</text>
</g>
<path class="lamp-fill" pathLength="1" d="M670.4 230 H734.4 V252.4 H670.4 Z M684.48 290.8 a17.92 17.92 0 1 0 35.84 0 a17.92 17.92 0 1 0 -35.84 0 Z"/>
<g class="call lamp">
<circle class="halo" cx="702" cy="291" r="30"/>
<circle class="dot" cx="702" cy="291" r="3.5"/>
<polyline class="ln-lead" pathLength="1" points="702,283 702,190 497,190"/>
<text class="t-call" x="497" y="147">UTORAK · 17:30</text>
<text class="t-web" x="497" y="176">„frizer + grad“</text>
</g>
</g>
</svg>
