<svg class="d" xmlns="http://www.w3.org/2000/svg" viewBox="0 0 1200 1000" preserveAspectRatio="xMaxYMid slice" role="img" aria-labelledby="nt-ustanove-i-udruge-d nd-ustanove-i-udruge-d"><title id="nt-ustanove-i-udruge-d">Tlocrt prizemlja ustanove s rampom, mjerilo 1:100</title><desc id="nd-ustanove-i-udruge-d">Tehnički crtež prizemlja ustanove: ulaz s podestom, stubama i rampom, predvorje s info pultom i oglasnom pločom, sobe, dvorana s podijem i arhiva. Oznake 01–04 povezuju dijelove ustanove s dijelovima weba ustanove ili udruge. Info pult uz ulaz označen je toplim svjetlom.</desc>
<defs><pattern id="hz-ustanove-i-udruge-d" width="8" height="8" patternUnits="userSpaceOnUse" patternTransform="rotate(45)"><line x1="0" y1="0" x2="0" y2="8" class="ln-h"/></pattern><pattern id="hz2-ustanove-i-udruge-d" width="8" height="8" patternUnits="userSpaceOnUse" patternTransform="rotate(-45)"><line x1="0" y1="0" x2="0" y2="8" class="ln-h"/></pattern><pattern id="wool-ustanove-i-udruge-d" width="20" height="16" patternUnits="userSpaceOnUse" patternTransform="rotate(-40)"><path d="M0 8 Q5 0 10 8 T20 8" class="ln-h" fill="none"/></pattern><pattern id="dots-ustanove-i-udruge-d" width="10" height="10" patternUnits="userSpaceOnUse"><circle cx="2" cy="2" r="0.9" class="nib"/><circle cx="7" cy="6" r="0.7" class="nib"/></pattern><pattern id="wool-v-ustanove-i-udruge-d" width="16" height="20" patternUnits="userSpaceOnUse"><path d="M8 0 Q0 5 8 10 T8 20" class="ln-h" fill="none"/></pattern><pattern id="grid-ustanove-i-udruge-d" width="40" height="40" patternUnits="userSpaceOnUse"><path d="M40 0H0V40" class="ln-grid" fill="none"/></pattern></defs>
<rect class="sheet" x="-200" y="-200" width="1600" height="1400"/><rect x="-200" y="-200" width="1600" height="1400" fill="url(#grid-ustanove-i-udruge-d)"/>
<g class="nd nd-1">
<line class="ln-con" x1="612.6" y1="196.4" x2="612.6" y2="702"/>
<line class="ln-con" x1="740.6" y1="196.4" x2="740.6" y2="702"/>
<line class="ln-con" x1="424.4" y1="352.6" x2="987.6" y2="352.6"/>
</g>
<g class="nd nd-2">
<rect class="wall" x="440.4" y="212.4" width="41.6" height="9.6"/>
<rect class="wall" x="578" y="212.4" width="64" height="9.6"/>
<rect class="wall" x="712.4" y="212.4" width="57.6" height="9.6"/>
<rect class="wall" x="866" y="212.4" width="105.6" height="9.6"/>
<rect class="wall" x="440.4" y="606" width="41.6" height="9.6"/>
<rect class="wall" x="578" y="606" width="70.4" height="9.6"/>
<rect class="wall" x="706" y="606" width="64" height="9.6"/>
<rect class="wall" x="882" y="606" width="89.6" height="9.6"/>
<rect class="wall" x="440.4" y="222" width="9.6" height="384"/>
<rect class="wall" x="962" y="222" width="9.6" height="160"/>
<rect class="wall" x="962" y="558" width="9.6" height="48"/>
<rect class="wall" x="610" y="222" width="4.8" height="51.2"/>
<rect class="wall" x="610" y="305.2" width="4.8" height="185.6"/>
<rect class="wall" x="610" y="522.8" width="4.8" height="83.2"/>
<rect class="wall" x="738" y="222" width="4.8" height="44.8"/>
<rect class="wall" x="738" y="305.2" width="4.8" height="230.4"/>
<rect class="wall" x="738" y="580.4" width="4.8" height="25.6"/>
<rect class="wall" x="450" y="401.2" width="160" height="4.8"/>
<rect class="wall" x="742.8" y="350" width="110.4" height="4.8"/>
<rect class="wall" x="885.2" y="350" width="76.8" height="4.8"/>
<rect class="wall" x="834" y="222" width="4.8" height="128"/>
</g>
<g class="nd nd-3">
<rect class="ln-2" pathLength="1" x="482" y="212.4" width="96" height="9.6"/>
<line class="ln-h" x1="482" y1="217.2" x2="578" y2="217.2"/>
<rect class="ln-2" pathLength="1" x="642" y="212.4" width="70.4" height="9.6"/>
<line class="ln-h" x1="642" y1="217.2" x2="712.4" y2="217.2"/>
<rect class="ln-2" pathLength="1" x="770" y="212.4" width="96" height="9.6"/>
<line class="ln-h" x1="770" y1="217.2" x2="866" y2="217.2"/>
<rect class="ln-2" pathLength="1" x="482" y="606" width="96" height="9.6"/>
<line class="ln-h" x1="482" y1="610.8" x2="578" y2="610.8"/>
<rect class="ln-2" pathLength="1" x="770" y="606" width="112" height="9.6"/>
<line class="ln-h" x1="770" y1="610.8" x2="882" y2="610.8"/>
<rect class="ln-2" pathLength="1" x="962" y="382" width="9.6" height="176"/>
<line class="ln-h" x1="966.8" y1="382" x2="966.8" y2="558"/>
<line class="ln-2" pathLength="1" x1="648.4" y1="606" x2="648.4" y2="577.2"/>
<path class="ln-h" d="M677.2 606 A28.80000000000001 28.80000000000001 0 0 0 648.4 577.2" fill="none"/>
<line class="ln-2" pathLength="1" x1="706" y1="606" x2="706" y2="577.2"/>
<path class="ln-h" d="M677.2 606 A28.80000000000001 28.80000000000001 0 0 1 706 577.2" fill="none"/>
<line class="ln-2" pathLength="1" x1="610" y1="305.2" x2="578" y2="305.2"/>
<path class="ln-h" d="M610 273.2 A32 32 0 0 0 578 305.2" fill="none"/>
<line class="ln-2" pathLength="1" x1="610" y1="522.8" x2="578" y2="522.8"/>
<path class="ln-h" d="M610 490.8 A32 32 0 0 0 578 522.8" fill="none"/>
<line class="ln-2" pathLength="1" x1="738" y1="305.2" x2="706" y2="305.2"/>
<path class="ln-h" d="M738 266.8 A32 32 0 0 0 706 305.2" fill="none"/>
<line class="ln-2" pathLength="1" x1="742.8" y1="580.4" x2="787.6" y2="580.4"/>
<path class="ln-h" d="M742.8 535.6 A44.80000000000001 44.80000000000001 0 0 1 787.6 580.4" fill="none"/>
<line class="ln-2" pathLength="1" x1="885.2" y1="354.8" x2="885.2" y2="386.8"/>
<path class="ln-h" d="M853.2 354.8 A32 32 0 0 0 885.2 386.8" fill="none"/>
<rect class="ln-2" pathLength="1" x="632.4" y="615.6" width="89.6" height="48"/>
<line class="ln-2" pathLength="1" x1="632.4" y1="673.2" x2="722" y2="673.2"/>
<line class="ln-2" pathLength="1" x1="632.4" y1="682.8" x2="722" y2="682.8"/>
<line class="ln-2" pathLength="1" x1="632.4" y1="692.4" x2="722" y2="692.4"/>
<line class="ln-2" pathLength="1" x1="632.4" y1="663.6" x2="632.4" y2="692.4"/>
<line class="ln-2" pathLength="1" x1="722" y1="663.6" x2="722" y2="692.4"/>
<rect class="ln-2" pathLength="1" x="469.2" y="620.4" width="163.2" height="43.2"/>
<line class="ln-h" x1="462.8" y1="625.2" x2="632.4" y2="625.2"/>
<line class="ln-h" x1="462.8" y1="658.8" x2="632.4" y2="658.8"/>
<path class="ln-2" pathLength="1" d="M616.4 641.8399999999999 H523.6 m8 -5 l-8 5 l8 5"/>
</g>
<g class="nd nd-4">
<rect class="cut" pathLength="1" x="614.8" y="314.8" width="5.4" height="80" fill="url(#dots-ustanove-i-udruge-d)"/>
<rect class="ln-2" pathLength="1" x="618" y="426.8" width="16" height="28.8"/>
<rect class="ln-2" pathLength="1" x="618" y="465.2" width="16" height="28.8"/>
<rect class="ln-2" pathLength="1" x="904.4" y="401.2" width="57.6" height="172.8"/>
<line class="ln-2" pathLength="1" x1="894.8" y1="410.8" x2="904.4" y2="410.8"/>
<line class="ln-2" pathLength="1" x1="894.8" y1="420.4" x2="904.4" y2="420.4"/>
<rect class="ln-h" x="766.8" y="401.2" width="13.4" height="12.8" fill="none"/>
<rect class="ln-h" x="766.8" y="426.8" width="13.4" height="12.8" fill="none"/>
<rect class="ln-h" x="766.8" y="452.4" width="13.4" height="12.8" fill="none"/>
<rect class="ln-h" x="766.8" y="478" width="13.4" height="12.8" fill="none"/>
<rect class="ln-h" x="766.8" y="503.6" width="13.4" height="12.8" fill="none"/>
<rect class="ln-h" x="766.8" y="529.2" width="13.4" height="12.8" fill="none"/>
<rect class="ln-h" x="766.8" y="554.8" width="13.4" height="12.8" fill="none"/>
<rect class="ln-h" x="766.8" y="580.4" width="13.4" height="12.8" fill="none"/>
<rect class="ln-h" x="794" y="401.2" width="13.4" height="12.8" fill="none"/>
<rect class="ln-h" x="794" y="426.8" width="13.4" height="12.8" fill="none"/>
<rect class="ln-h" x="794" y="452.4" width="13.4" height="12.8" fill="none"/>
<rect class="ln-h" x="794" y="478" width="13.4" height="12.8" fill="none"/>
<rect class="ln-h" x="794" y="503.6" width="13.4" height="12.8" fill="none"/>
<rect class="ln-h" x="794" y="529.2" width="13.4" height="12.8" fill="none"/>
<rect class="ln-h" x="794" y="554.8" width="13.4" height="12.8" fill="none"/>
<rect class="ln-h" x="794" y="580.4" width="13.4" height="12.8" fill="none"/>
<rect class="ln-h" x="821.2" y="401.2" width="13.4" height="12.8" fill="none"/>
<rect class="ln-h" x="821.2" y="426.8" width="13.4" height="12.8" fill="none"/>
<rect class="ln-h" x="821.2" y="452.4" width="13.4" height="12.8" fill="none"/>
<rect class="ln-h" x="821.2" y="478" width="13.4" height="12.8" fill="none"/>
<rect class="ln-h" x="821.2" y="503.6" width="13.4" height="12.8" fill="none"/>
<rect class="ln-h" x="821.2" y="529.2" width="13.4" height="12.8" fill="none"/>
<rect class="ln-h" x="821.2" y="554.8" width="13.4" height="12.8" fill="none"/>
<rect class="ln-h" x="821.2" y="580.4" width="13.4" height="12.8" fill="none"/>
<rect class="ln-h" x="848.4" y="401.2" width="13.4" height="12.8" fill="none"/>
<rect class="ln-h" x="848.4" y="426.8" width="13.4" height="12.8" fill="none"/>
<rect class="ln-h" x="848.4" y="452.4" width="13.4" height="12.8" fill="none"/>
<rect class="ln-h" x="848.4" y="478" width="13.4" height="12.8" fill="none"/>
<rect class="ln-h" x="848.4" y="503.6" width="13.4" height="12.8" fill="none"/>
<rect class="ln-h" x="848.4" y="529.2" width="13.4" height="12.8" fill="none"/>
<rect class="ln-h" x="848.4" y="554.8" width="13.4" height="12.8" fill="none"/>
<rect class="ln-h" x="848.4" y="580.4" width="13.4" height="12.8" fill="none"/>
<rect class="ln-h" x="875.6" y="401.2" width="13.4" height="12.8" fill="none"/>
<rect class="ln-h" x="875.6" y="426.8" width="13.4" height="12.8" fill="none"/>
<rect class="ln-h" x="875.6" y="452.4" width="13.4" height="12.8" fill="none"/>
<rect class="ln-h" x="875.6" y="478" width="13.4" height="12.8" fill="none"/>
<rect class="ln-h" x="875.6" y="503.6" width="13.4" height="12.8" fill="none"/>
<rect class="ln-h" x="875.6" y="529.2" width="13.4" height="12.8" fill="none"/>
<rect class="ln-h" x="875.6" y="554.8" width="13.4" height="12.8" fill="none"/>
<rect class="ln-h" x="875.6" y="580.4" width="13.4" height="12.8" fill="none"/>
<rect class="ln-2" pathLength="1" x="853.2" y="238" width="96" height="14.4"/>
<rect class="ln-2" pathLength="1" x="853.2" y="270" width="96" height="14.4"/>
<rect class="ln-2" pathLength="1" x="853.2" y="302" width="96" height="14.4"/>
<rect class="ln-h" x="482" y="286" width="38.4" height="25.6" fill="none"/>
<rect class="ln-h" x="539.6" y="286" width="38.4" height="25.6" fill="none"/>
<rect class="ln-h" x="482" y="484.4" width="38.4" height="25.6" fill="none"/>
<rect class="ln-h" x="539.6" y="484.4" width="38.4" height="25.6" fill="none"/>
</g>
<g class="nd nd-5">
<text class="t-dim" x="530" y="362.8" text-anchor="middle">SOBA 1</text>
<text class="t-dim" x="530" y="554.8" text-anchor="middle">SOBA 2</text>
<text class="t-dim" x="821.2" y="388.4" text-anchor="middle">DVORANA</text>
<text class="t-dim" x="933.2" y="492.6" text-anchor="middle">PODIJ</text>
<text class="t-dim" x="493.2" y="646.8" text-anchor="middle">5 %</text>
<g class="dim">
<line class="ln-dim" pathLength="1" x1="971.6" y1="212.4" x2="999.6" y2="212.4"/>
<line class="ln-dim" pathLength="1" x1="971.6" y1="615.6" x2="999.6" y2="615.6"/>
<line class="ln-dim" pathLength="1" x1="993.6" y1="212.4" x2="993.6" y2="615.6"/>
<line class="ln-dim" pathLength="1" x1="997.8" y1="208.2" x2="989.4" y2="216.6"/>
<line class="ln-dim" pathLength="1" x1="997.8" y1="611.4" x2="989.4" y2="619.8"/>
<text class="t-dim" text-anchor="middle" transform="translate(1005.6 414) rotate(90)">12,60</text>
</g>
</g>
<g class="nd nd-5 key">
<rect class="ln-h" x="962" y="42" width="150" height="66" fill="none"/>
<rect class="ln-2" pathLength="1" x="992" y="52" width="70" height="46" style="fill:rgba(227,233,255,.08)"/>
<line class="ln-2" pathLength="1" x1="956" y1="118" x2="1118" y2="118"/>
<path class="ln-2" pathLength="1" d="M1024 114 V102 m-5 7 l5 -7 l5 7"/>
<text class="t-small" x="962" y="142">KLJUČ · SITUACIJA</text>
</g>
<g class="nd nd-6">
<g class="call c01">
<circle class="dot" cx="677.2" cy="610.8" r="3.5"/>
<polyline class="ln-lead" pathLength="1" points="677.2,610.8 677.2,740 689.2,740" fill="none"/>
<text class="t-call" x="697.2" y="745"><tspan class="t-n">01</tspan>  ULAZ</text>
<text class="t-web" x="697.2" y="765">→ Ulaz za svakog posjetitelja</text>
</g>
<g class="call c02">
<circle class="dot" cx="620.2" cy="353.2" r="3.5"/>
<polyline class="ln-lead" pathLength="1" points="620.2,353.2 620.2,100 632.2,100" fill="none"/>
<text class="t-call" x="640.2" y="105"><tspan class="t-n">02</tspan>  OGLASNA PLOČA</text>
<text class="t-web" x="640.2" y="125">→ Novosti i projekti</text>
</g>
<g class="call c03">
<circle class="dot" cx="546" cy="650.8" r="3.5"/>
<polyline class="ln-lead" pathLength="1" points="546,650.8 546,800 558,800" fill="none"/>
<text class="t-call" x="566" y="805"><tspan class="t-n">03</tspan>  RAMPA</text>
<text class="t-web" x="566" y="825">→ Pristupačnost</text>
</g>
<g class="call c04">
<circle class="dot" cx="949.2" cy="277" r="3.5"/>
<polyline class="ln-lead" pathLength="1" points="949.2,277 1000,277" fill="none"/>
<text class="t-call" x="1008" y="282"><tspan class="t-n">04</tspan>  ARHIVA</text>
<text class="t-web" x="1008" y="302">→ Dokumenti</text>
</g>
<path class="lamp-fill" pathLength="1" d="M686.8 497.2 L731.6 497.2 L731.6 522.8 L699.6 522.8 L686.8 510 Z"/>
<g class="call lamp">
<circle class="halo" cx="709.2" cy="510" r="30"/>
<circle class="dot" cx="709.2" cy="510" r="3.5"/>
<polyline class="ln-lead" pathLength="1" points="709.2,502 709.2,185 932.9,185" fill="none"/>
<text class="t-call" x="725" y="155">RUJAN · UPISI</text>
<text class="t-web" x="725" y="175">„upis u vrtić + grad“</text>
</g>
</g>
<g class="nd nd-6 tb">
<rect class="tb-bg" x="772" y="836" width="400" height="112"/>
<line class="ln-frame" pathLength="1" x1="772" y1="866" x2="1172" y2="866"/>
<line class="ln-frame" pathLength="1" x1="1052" y1="836" x2="1052" y2="866"/>
<line class="ln-frame" pathLength="1" x1="772" y1="922" x2="1172" y2="922"/>
<text class="t-tb" x="784" y="856">ZAEC · NACRT DJELATNOSTI</text>
<text class="t-tb" x="1064" y="856">LIST 10/10</text>
<text class="t-tb-b" x="784" y="894">Ustanove i udruge</text>
<text class="t-tb" x="784" y="913">TLOCRT PRIZEMLJA · M 1:100</text>
<text class="t-tb" x="784" y="943">WEB · NOVOSTI · DOKUMENTI · UPIT</text>
</g>
</svg>
